#N canvas 114 52 599 493 12;
#X obj 100 101 cnv 15 200 100 empty empty empty 20 12 0 14 -191611
-66577 0;
#X obj 13 14 loadbang;
#X obj 288 440 s niom_live;
#X msg 13 241 close;
#X obj 131 162 bng 15 250 50 0 empty empty empty 17 7 0 10 -262144
-1 -1;
#X obj 130 182 bng 15 250 50 0 empty empty empty 17 7 0 10 -262144
-1 -1;
#X obj 288 254 r niom_live_out;
#X symbolatom 187 124 10 0 0 0 - - -, f 10;
#X obj 83 241 symbol \$1;
#X obj 288 324 rawhid;
#X obj 288 362 mrpeach/slipdec;
#X msg 83 269 open 0x16c0 \$1;
#X obj 288 288 mrpeach/slipenc;
#X obj 288 401 mrpeach/unpackOSC;
#X msg 249 213 poll \$1;
#X msg 176 242 packets \$1;
#X floatatom 176 180 3 1 100 0 - - -, f 3;
#X floatatom 249 180 3 1 1000 0 - - -, f 3;
#X text 140 123 Board;
#X text 110 159 ON;
#X text 102 180 OFF;
#X text 251 158 ms;
#X text 162 159 packets;
#X text 136 202 POLL;
#X obj 13 53 symbol \$1;
#X obj 13 92 int \$2;
#X obj 13 131 int \$3;
#X obj 446 435 print osc_in;
#X obj 446 396 print slip_in;
#X obj 446 357 print raw_in;
#X obj 446 318 print slip_out;
#X obj 446 279 print osc_out;
#X text 446 226 Debug prints ____________;
#X connect 1 0 24 0;
#X connect 1 0 25 0;
#X connect 1 0 26 0;
#X connect 1 0 3 0;
#X connect 3 0 9 0;
#X connect 4 0 8 0;
#X connect 5 0 3 0;
#X connect 6 0 12 0;
#X connect 8 0 11 0;
#X connect 9 0 10 0;
#X connect 10 0 13 0;
#X connect 11 0 9 0;
#X connect 12 0 9 0;
#X connect 13 0 2 0;
#X connect 14 0 9 0;
#X connect 15 0 9 0;
#X connect 16 0 15 0;
#X connect 17 0 14 0;
#X connect 24 0 7 0;
#X connect 25 0 17 0;
#X connect 26 0 16 0;
#X coords 0 -1 1 1 200 100 2 100 100;
