#N canvas 495 31 724 247 10;
#X obj 398 201 s niom_live;
#X msg 10 11 close;
#X obj 398 11 r niom_live_out;
#X obj 398 87 rawhid;
#X obj 398 125 mrpeach/slipdec;
#X obj 398 49 mrpeach/slipenc;
#X obj 398 163 mrpeach/unpackOSC;
#X obj 554 198 print osc_in;
#X obj 554 160 print slip_in;
#X obj 554 122 print raw_in;
#X obj 554 84 print slip_out;
#X obj 554 46 print osc_out;
#X text 554 10 Debug prints ____________;
#X msg 61 11 open 0x16c0 0x486;
#X msg 185 11 packets 5;
#X msg 264 11 poll 5;
#X connect 1 0 3 0;
#X connect 2 0 5 0;
#X connect 3 0 4 0;
#X connect 4 0 6 0;
#X connect 5 0 3 0;
#X connect 6 0 0 0;
#X connect 13 0 3 0;
#X connect 14 0 3 0;
#X connect 15 0 3 0;
